<svg width="486" height="444" viewBox="0 0 486 444" fill="none" xmlns="http://www.w3.org/2000/svg">
<path d="M454.902 419.758H434.253L436.962 427.038C432.524 428.483 422.428 431.796 417.895 433.099C413.674 434.313 412.517 439.215 415.881 441.495C417.288 442.449 419.173 442.92 421 442.913L451.812 442.803C456.095 442.787 458.922 441.654 459.495 438.026C459.627 437.195 459.555 436.341 459.328 435.531L454.902 419.758Z" fill="#072C4E"/>
<path d="M338.583 419.9H316.687L319.092 427.02C314.654 428.466 304.268 431.907 299.736 433.21C295.515 434.423 294.358 439.324 297.722 441.605C299.129 442.559 301.014 442.92 302.841 442.914H336.129C336.177 442.914 336.225 442.913 336.273 442.912C341.294 442.851 344.735 437.804 343.089 433.056L338.583 419.9Z" fill="#072C4E"/>
<path d="M408.626 217.256C408.626 217.256 423.342 259.202 436.598 302.272C442.537 321.567 463.026 394.682 469.289 412.641C470.413 415.863 468.023 419.598 464.613 419.598H424.05C419.756 419.598 415.188 416.24 413.894 412.141C385.359 321.7 368.858 235.474 368.858 235.474C368.858 235.374 335.715 292.019 328.942 303.595C328.17 304.915 327.934 306.474 328.283 307.963C331.28 320.772 346.04 383.434 354.928 413.473C355.801 416.425 353.668 419.509 350.591 419.533C350.57 419.533 350.548 419.534 350.527 419.533H312.157C309.117 419.533 305.922 417.144 305.048 414.229C294.668 379.65 287.28 345.805 281.01 314.643C278.272 301.043 280.911 293.924 291.794 277.982C304.202 259.805 334.26 211.297 337.63 207.924" stroke="#082C4E" stroke-width="1.17148" stroke-linecap="round" stroke-linejoin="round"/>
<path d="M115.396 420.105H94.7478L94.373 425.963C89.9345 427.408 78.2529 431.196 73.72 432.499C69.4999 433.712 68.3433 438.614 71.7074 440.895C73.1134 441.848 75.1335 442.209 76.9601 442.203H106.4C111.231 442.185 114.208 440.745 114.191 435.909L115.396 420.105Z" fill="#072C4E"/>
<path d="M221.394 419.544H243.29L249.094 425.962C253.532 427.408 265.214 431.196 269.746 432.499C273.967 433.712 275.123 438.614 271.759 440.895C270.353 441.848 268.467 442.208 266.64 442.202H233.352C228.522 442.184 225.959 440.146 225.031 436.274L221.394 419.544Z" fill="#072C4E"/>
<path d="M204.283 248.913C226.524 290.493 259.611 369.685 268.837 411.851C269.61 415.386 266.953 419.492 263.339 419.546H212.8C209.938 419.589 206.833 416.043 206.409 413.209C199.333 365.987 151.371 251.218 144.406 227.827C144.406 227.827 136.584 374.037 136.063 409.633C135.988 414.788 132.549 420.166 127.398 420.166H85.3093C79.5948 420.166 75.1961 415.12 75.9733 409.453C85.8249 337.616 92.6596 258.249 101.944 214.67" stroke="#082C4E" stroke-width="1.17148" stroke-linecap="round" stroke-linejoin="round"/>
<path d="M175.973 211.634C179.568 218.044 184.82 225.076 188.106 229.177" stroke="#082C4E" stroke-width="1.17148" stroke-linecap="round" stroke-linejoin="round"/>
<path d="M63.7471 441.182C182.175 443.713 281.572 442.627 281.572 442.627" stroke="#082C4E" stroke-width="1.17148" stroke-linecap="round" stroke-linejoin="round"/>
<path d="M301.456 441.829C318.179 442.186 331.949 442.326 345.97 442.503C431.241 443.581 467.773 442.616 467.773 442.616" stroke="#082C4E" stroke-width="1.17148" stroke-linecap="round" stroke-linejoin="round"/>
<path d="M236.199 83.7678C236.199 83.7678 258.799 116.202 289.359 132.159C319.246 147.759 357.686 148.09 359.364 148.096" stroke="#092C4E" stroke-width="28.7013" stroke-linejoin="round"/>
<path d="M236.199 83.7678C236.199 83.7678 258.799 116.202 289.359 132.159C319.246 147.759 357.686 148.09 359.364 148.096" stroke="#FFCC00" stroke-width="26.3583"/>
<path d="M245.421 72.2919L220.991 91.4596L224.658 94.1295L248.919 78.2018L245.421 72.2919Z" fill="#FFCC00"/>
<path d="M232.94 84.5708C229.267 83.7737 225.376 76.2906 224.29 73.0002C223.453 70.4668 224.037 68.5312 226.279 67.5259C229.508 66.0782 233.797 69.858 234.448 70.6623" stroke="#082C4E" stroke-width="1.17148" stroke-linecap="round" stroke-linejoin="round"/>
<path d="M232.447 74.7966C233.225 75.6709 235.105 78.8598 235.588 79.9247" stroke="#082C4E" stroke-width="1.17148" stroke-linecap="round" stroke-linejoin="round"/>
<path d="M223.345 71.5495C219.351 70.7176 218.667 74.2767 218.924 76.1867C219.579 81.0618 223.915 87.2793 226.509 89.5568C227.302 90.2515 228.517 90.4459 229.505 90.0813C230.493 89.7168 231.202 88.5657 230.859 87.5696" stroke="#082C4E" stroke-width="1.17148" stroke-linecap="round" stroke-linejoin="round"/>
<path d="M218.563 75.3787C215.356 75.2953 214.566 78.7248 215.092 81.4079C215.996 86.022 219.681 89.7669 221.851 91.3076C222.903 92.0542 225.799 92.7665 226.738 90.1602" stroke="#082C4E" stroke-width="1.17148" stroke-linecap="round" stroke-linejoin="round"/>
<path d="M250.196 75.9138C250.196 75.9138 247.344 73.6284 240.524 63.8557C236.952 58.7386 234.988 55.7384 233.116 53.9323C230.789 51.6883 228.69 50.9137 227.525 52.1912C226.212 53.6306 227.646 58.3033 229.305 61.6381C232.234 67.5237 239.585 78.6522 241.606 81.2185" stroke="#082C4E" stroke-width="1.17148" stroke-linecap="round" stroke-linejoin="round"/>
<path d="M250.161 85.0426C247.081 82.577 236.722 79.8909 234.308 79.9669C231.283 80.0624 231.405 83.3009 233.644 85.1931C236.444 87.561 241.339 88.9198 241.749 88.9391C242.855 88.9916 236.643 90.6109 236.013 94.7422" stroke="#082C4E" stroke-width="1.17148" stroke-linecap="round" stroke-linejoin="round"/>
<path d="M452.074 272.674C452.074 272.674 477.405 236.124 462.185 199.419C447.296 163.49 405.094 155.198 403.295 154.854" stroke="#092C4E" stroke-width="28.7013" stroke-linejoin="round"/>
<path d="M452.074 272.674C452.074 272.674 477.405 236.124 462.185 199.419C447.296 163.49 405.094 155.198 403.295 154.854" stroke="#FFCC00" stroke-width="26.3583"/>
<path d="M401.15 218.592L343.962 209.65C340.778 209.152 338.601 206.165 339.098 202.978L348.37 143.558C349.836 134.165 358.63 127.74 368.013 129.207L402.752 134.639C412.136 136.106 418.554 144.911 417.089 154.304L407.815 213.723C407.318 216.91 404.335 219.09 401.15 218.592Z" fill="#2F97F3"/>
<path d="M426.459 377.607L336.864 337.528L389.602 219.483L479.197 259.561L426.459 377.607Z" fill="white"/>
<path d="M362.742 321.185C377.635 301.931 392.562 282.703 407.521 263.5C408.526 262.21 409.638 260.846 411.212 260.403C412.828 259.947 414.53 260.577 416.09 261.196C421.504 263.344 426.917 265.492 432.331 267.64" stroke="#082C4E" stroke-width="1.17148" stroke-linecap="round" stroke-linejoin="round"/>
<path d="M364.055 323.899C367.189 324.812 377.224 329.202 377.224 329.202C377.224 329.202 396.504 305.391 397.096 305.278C397.417 305.218 410.05 310.363 409.899 310.864C406.859 320.964 404.79 331.377 402.648 338.339C402.523 338.748 418.884 346.033 419.164 345.912C419.668 345.695 420.091 344.024 420.21 343.488C422.278 334.161 431.379 289.855 431.676 282.778" stroke="#082C4E" stroke-width="1.17148" stroke-linecap="round" stroke-linejoin="round"/>
<path d="M404.029 293.674C404.029 293.674 411.391 297.051 413.386 297.827C413.82 297.996 417.516 275.126 417.516 275.126L404.029 293.674Z" stroke="#082C4E" stroke-width="1.17148" stroke-linecap="round" stroke-linejoin="round"/>
<path d="M438.677 263.485C435.497 268.479 426.265 277.684 429.016 279.852C432.294 282.435 438.868 274.716 441.759 270.815" stroke="#082C4E" stroke-width="1.17148" stroke-linecap="round" stroke-linejoin="round"/>
<path d="M436.361 288.449C436.284 291.1 439.701 290.535 441.593 289.451C446.579 286.594 449.996 281.052 452.434 277.072" stroke="#082C4E" stroke-width="1.17148" stroke-linecap="round" stroke-linejoin="round"/>
<path d="M442.821 268.687C440.976 272.102 440.545 274.009 436.022 279.881C433.586 283.042 430.022 287.271 432.245 288.54C436.731 291.1 444.251 280.389 447.662 274.243" stroke="#082C4E" stroke-width="1.17148" stroke-linecap="round" stroke-linejoin="round"/>
<path d="M442.028 291.173C442.446 291.867 443.787 292.841 445.954 291.965C449.542 290.516 453.237 287.823 455.165 284.466" stroke="#082C4E" stroke-width="1.17148" stroke-linecap="round" stroke-linejoin="round"/>
<path d="M438.631 263.343C438.631 263.343 446.592 253.423 448.666 240.611" stroke="#092C4E" stroke-width="1.17148"/>
<path d="M476.737 256.847C476.737 256.847 474.001 267.704 469.252 275.275" stroke="#092C4E" stroke-width="1.17148"/>
<path d="M338.953 162.691C338.953 162.691 342.938 163.643 356.106 162.227" stroke="#092C4E" stroke-width="1.17148"/>
<path d="M346.505 131.54C346.505 131.54 350.804 132.087 362.667 131.594" stroke="#092C4E" stroke-width="1.17148"/>
<path d="M416.338 175.925C416.338 175.925 412.147 173.242 402.633 172.062" stroke="#092C4E" stroke-width="1.17148"/>
<path d="M421.216 143.599C421.216 143.599 412.725 139.958 404.533 139.667" stroke="#092C4E" stroke-width="1.17148"/>
<path d="M383.748 112.427C383.748 112.427 378.297 116.104 372.163 113.083" stroke="#082C4E" stroke-width="1.17148" stroke-linecap="round" stroke-linejoin="round"/>
<path d="M376.205 103.656L373.047 108.739L375.767 110.193" stroke="#082C4E" stroke-width="1.17148" stroke-linecap="round" stroke-linejoin="round"/>
<path d="M375.936 102.883C375.786 105.116 373.856 106.805 371.625 106.655C369.394 106.505 367.707 104.574 367.857 102.34C368.006 100.107 369.936 98.418 372.167 98.5678C374.398 98.7176 376.085 100.649 375.936 102.883Z" stroke="#082C4E" stroke-width="1.17148" stroke-linecap="round" stroke-linejoin="round"/>
<path d="M386.024 104.018C385.874 106.251 383.944 107.94 381.713 107.79C379.483 107.64 377.795 105.709 377.946 103.476C378.095 101.243 380.025 99.5544 382.255 99.7035C384.486 99.8533 386.173 101.784 386.024 104.018Z" stroke="#082C4E" stroke-width="1.17148" stroke-linecap="round" stroke-linejoin="round"/>
<path d="M376.225 103.36L377.946 103.476L376.225 103.36Z" fill="#2F97F3"/>
<path d="M376.225 103.36L377.946 103.476" stroke="#082C4E" stroke-width="1.17148" stroke-linecap="round" stroke-linejoin="round"/>
<path d="M390.474 89.2721C388.352 86.4774 385.088 84.5747 381.314 84.3216C374.388 83.8568 368.397 89.1001 367.933 96.0329L384.271 97.1293C385.799 100.254 388.846 101.348 391.426 101.857C394.085 102.381 395.286 103.748 395.589 105.402C395.666 105.821 395.719 106.267 395.77 106.729C396.359 106.513 397.001 106.41 397.668 106.455C400.214 106.626 402.139 108.83 401.968 111.378C401.864 112.933 401.002 114.254 399.768 115.011C401.256 116.072 403.052 116.736 405.008 116.868C405.023 116.868 405.038 116.868 405.054 116.87C406.25 114.599 407.002 112.049 407.184 109.324C407.863 99.1967 400.446 90.4016 390.474 89.2721Z" fill="#FD6470"/>
<path d="M404.278 117.94C400.748 123.084 394.829 126.458 388.124 126.458C377.309 126.458 368.541 117.681 368.541 106.854C368.541 106.34 368.56 105.831 368.599 105.325" stroke="#082C4E" stroke-width="1.17148" stroke-linecap="round" stroke-linejoin="round"/>
<path d="M141.664 97.1475L146.808 100.647L144.677 103.418" stroke="#082C4E" stroke-width="1.17148" stroke-linecap="round" stroke-linejoin="round"/>
<path d="M147.069 105.676C147.069 105.676 142.452 109.349 137.386 107.845C137.386 107.845 138.199 114.456 144.597 113.229" stroke="#082C4E" stroke-width="1.17148" stroke-linecap="round" stroke-linejoin="round"/>
<path d="M145.192 93.4146C147.848 96.7674 149.43 101.01 149.422 105.621C149.402 116.448 140.618 125.209 129.803 125.189C123.994 125.178 118.782 122.638 115.203 118.611" stroke="#082C4E" stroke-width="1.17148" stroke-linecap="round" stroke-linejoin="round"/>
<path d="M144.789 91.9888C140.598 87.1331 134.307 84.5657 127.942 85.0716C127.93 85.0722 126.338 85.2285 125.272 85.4823C123.735 85.8479 122.41 86.2854 121.423 86.7194C119.224 87.6884 117.284 88.9951 115.634 90.5467C115.287 90.1837 114.914 89.8389 114.498 89.5291C110.489 86.5442 104.821 87.3779 101.84 91.3911C98.8577 95.4043 99.6899 101.077 103.699 104.062C105.395 105.325 107.387 105.897 109.347 105.841C109.407 107.345 109.639 108.861 110.055 110.363C111.119 114.752 113.944 117.977 113.944 117.977C119.366 115.823 121.846 113.789 122.97 111.823C122.812 111.828 122.653 111.825 122.492 111.814C119.947 111.638 118.026 109.431 118.201 106.883C118.376 104.335 120.582 102.411 123.127 102.587C123.556 102.617 123.964 102.708 124.351 102.845C124.782 101.792 125.57 100.735 126.998 99.6662C131.319 96.4348 132.594 93.2882 132.443 90.7475C136.255 92.4137 140.567 92.9115 144.789 91.9888Z" fill="#2F97F3"/>
<path d="M0.433899 396.973C0.433899 406.864 6.6296 415.302 15.3462 418.623C10.1871 421.346 6.66869 426.765 6.66869 433.009V441.379H45.4255V433.009C45.4255 426.765 41.9071 421.346 36.748 418.623C45.4646 415.302 51.6603 406.864 51.6603 396.973V373.353H0.433899V396.973Z" fill="#2F97F3"/>
<path d="M9.66681 338.985C15.386 350.609 19.5495 362.998 22.0124 375.719" stroke="#082C4E" stroke-width="1.17148" stroke-linecap="round" stroke-linejoin="round"/>
<path d="M26.6766 374.581C29.0917 358.332 40.2698 337.19 43.8644 333.873" stroke="#082C4E" stroke-width="1.17148" stroke-linecap="round" stroke-linejoin="round"/>
<path d="M17.5725 373.028C14.7806 369.557 12.1418 365.962 9.66677 362.259C8.03831 359.821 4.04063 352.821 7.23486 352C9.11474 351.517 11.8479 355.238 13.6213 357.42C8.55934 350.025 3.69552 341.893 3.49803 332.93C3.42456 329.595 4.45246 325.948 7.33529 324.275C10.9495 322.177 14.4322 325.776 16.1173 328.699C21.2574 337.619 20.1048 344.105 21.2669 354.333C21.5243 353.511 21.678 351.021 22.9405 351.014C27.0238 350.991 25.4425 369.043 24.486 372.894" stroke="#082C4E" stroke-width="1.17148" stroke-linecap="round" stroke-linejoin="round"/>
<path d="M26.8458 352.203C28.2283 345.455 31.8249 329.911 36.3867 330.125C38.3596 330.218 38.4095 333.44 38.2383 334.322C39.9227 328.672 44.3774 323.92 49.9051 321.88C51.2161 321.396 52.7617 321.08 53.9493 321.816C55.0217 322.482 55.4814 323.857 55.3911 325.116C55.3001 326.375 54.7541 327.55 54.1994 328.684C51.9886 333.192 47.9875 339.078 45.2132 343.263C48.8078 340.788 50.3675 340.234 52.2615 340.544C53.7835 340.794 54.7851 342.412 54.8323 343.955C54.8801 345.498 54.198 346.963 53.4654 348.322C50.5299 353.763 46.4938 358.604 41.6718 362.469C43.0549 362.673 44.8054 361.451 45.6628 362.556C45.8805 362.836 45.9519 363.205 45.9546 363.56C45.9661 365.137 44.7885 366.447 43.6198 367.502C40.6709 370.165 37.2812 372.335 33.6306 373.899" stroke="#082C4E" stroke-width="1.17148" stroke-linecap="round" stroke-linejoin="round"/>
<path d="M429.103 57.4998H472.358V116.738H429.103V57.4998Z" fill="#FD6470"/>
<path d="M434.963 63.7356H466.469V110.112H434.963V63.7356Z" stroke="#082C4E" stroke-width="1.17148" stroke-linecap="round" stroke-linejoin="round"/>
<path d="M455.605 81.9924C455.605 86.4017 452.033 89.9764 447.628 89.9764C443.223 89.9764 439.652 86.4017 439.652 81.9924C439.652 77.583 443.223 74.0083 447.628 74.0083C452.033 74.0083 455.605 77.583 455.605 81.9924Z" stroke="#082C4E" stroke-width="1.17148" stroke-linecap="round" stroke-linejoin="round"/>
<path d="M451.111 99.6472C451.111 96.2932 453.827 93.5747 457.177 93.5747C460.528 93.5747 463.244 96.2932 463.244 99.6472" stroke="#082C4E" stroke-width="1.17148" stroke-linecap="round" stroke-linejoin="round"/>
<path d="M209.337 242.447C241.712 226.804 267.714 208.685 259.081 176.508C245.847 127.18 164.516 135.615 164.516 135.615" stroke="#082C4E" stroke-width="1.17148" stroke-linecap="round" stroke-linejoin="round"/>
<path d="M171.369 166.09C171.369 166.09 216.864 160.073 228.325 177.785C236.264 190.055 231.74 202.597 213.945 212.871C206.243 217.319 193.834 221.045 186.083 225.607" stroke="#082C4E" stroke-width="1.17148" stroke-linecap="round" stroke-linejoin="round"/>
<path d="M200.884 241.351C199.178 244.366 197.201 249.062 196.924 252.906C196.887 253.435 196.961 254.274 197.32 254.663C197.946 255.343 199.083 254.909 199.813 254.343" stroke="#082C4E" stroke-width="1.17148" stroke-linecap="round" stroke-linejoin="round"/>
<path d="M190.921 226.711C188.723 228.871 186.512 231.044 184.701 233.54C182.89 236.034 181.481 238.891 181.085 241.949C181.004 242.572 181.021 243.322 181.541 243.674C181.816 243.86 182.174 243.881 182.502 243.827C183.702 243.627 184.548 242.58 185.294 241.619C187.446 238.848 189.731 236.181 192.14 233.631C189.753 237.359 187.335 241.148 186.068 245.39C185.904 245.938 185.758 246.509 185.831 247.077C185.904 247.645 186.241 248.213 186.781 248.4C187.284 248.575 187.838 248.393 188.318 248.162C190.497 247.116 192.05 245.11 193.33 243.057C194.608 241.005 196.109 238.371 197.036 237.106C194.794 240.34 191.728 245.427 190.942 250.15C190.69 251.66 190.993 252.934 191.812 253.412C192.824 254.001 194.01 252.763 194.355 252.356C196.944 249.319 198.967 244.443 200.799 241.491" stroke="#082C4E" stroke-width="1.17148" stroke-linecap="round" stroke-linejoin="round"/>
<path d="M96.0945 42.4407C96.0945 42.4407 30.3697 61.0024 37.7503 109.812C44.9894 157.664 110.761 156.915 113.323 156.868" stroke="#092C4E" stroke-width="28.7013" stroke-linejoin="round"/>
<path d="M96.0945 42.4407C96.0945 42.4407 30.3697 61.0024 37.7503 109.812C44.9894 157.664 110.761 156.915 113.323 156.868" stroke="#FFCC00" stroke-width="26.3583"/>
<path d="M192.46 16.6791L190.943 11.8501C190.539 10.5641 189.435 9.62475 188.102 9.43318L144.343 3.1395C142.928 2.9365 141.485 3.15847 140.197 3.77861L114.546 17.7195C112.96 13.71 108.474 11.6541 104.39 13.125L97.6118 15.5671C93.4464 17.0671 91.2847 21.6625 92.7832 25.8303L105.267 60.5602C106.765 64.7281 111.356 66.8907 115.522 65.3908L122.3 62.9487C125.664 61.737 127.718 58.5068 127.596 55.1126L155.346 52.2897C156.828 52.1171 158.216 51.4731 159.306 50.4522L191.512 20.2893C192.496 19.3684 192.864 17.9644 192.46 16.6791Z" fill="white"/>
<path d="M191.79 14.5595L157.765 25.2714" stroke="#082C4E" stroke-width="1.17148" stroke-linecap="round" stroke-linejoin="round"/>
<path d="M146.731 28.7445C145.773 25.6948 147.467 22.4442 150.514 21.4849C153.562 20.5257 156.809 22.2206 157.767 25.2703C158.726 28.32 157.032 31.5707 153.985 32.5306C150.937 33.4898 147.69 31.7942 146.731 28.7445Z" stroke="#082C4E" stroke-width="1.17148" stroke-linecap="round" stroke-linejoin="round"/>
<path d="M90.3074 29.6288L97.9193 56.753L101.822 56.6282L93.3313 27.6168L90.3074 29.6288Z" fill="#FFCC00"/>
<path d="M89.2767 41.0929C93.2649 39.0347 99.2687 37.2405 103.8 34.6206C108.173 32.0925 106.707 29.7603 102.686 30.3422C99.6798 30.7779 92.3358 32.5518 86.8916 35.021" stroke="#082C4E" stroke-width="1.17148" stroke-linecap="round" stroke-linejoin="round"/>
<path d="M91.4945 47.1746C92.8138 46.3247 110.901 40.6917 108.924 37.5308C106.952 34.3791 91.8647 40.544 89.3653 41.1743" stroke="#082C4E" stroke-width="1.17148" stroke-linecap="round" stroke-linejoin="round"/>
<path d="M93.9728 52.3417C106.312 47.1615 111.679 45.3716 110.529 43.1782C109.397 41.019 98.4727 45.023 91.6623 47.1671" stroke="#082C4E" stroke-width="1.17148" stroke-linecap="round" stroke-linejoin="round"/>
<path d="M177.725 200.487C176.97 191.197 168.978 184.238 159.745 184.696C166.074 181.663 170.15 174.907 169.436 167.51L167.231 144.665C166.318 135.202 157.915 128.271 148.461 129.186L116.131 132.313C106.678 133.227 99.7552 141.639 100.669 151.101L102.873 173.946C103.539 180.851 108.196 186.403 114.337 188.547C106.078 190.376 100.226 198.068 100.931 206.744C101.701 216.22 109.999 223.275 119.465 222.504L161.981 219.041C171.447 218.269 178.496 209.962 177.725 200.487Z" fill="#FD6470"/>
</svg>
